<svg width="850" height="893" viewBox="0 0 850 893" fill="none" xmlns="http://www.w3.org/2000/svg">
<path d="M878.197 211.713L903.291 144.819C904.457 141.713 904.565 138.309 903.597 135.136C902.629 131.963 900.64 129.199 897.94 127.274C895.239 125.346 891.978 124.362 888.663 124.476C885.347 124.59 882.161 125.795 879.599 127.904L638.095 326.718C631.502 332.165 626.588 339.373 623.925 347.503C621.263 355.633 620.96 364.352 623.053 372.648C624.408 377.953 625.919 383.816 627.384 389.423C628.48 393.651 628.229 398.116 626.667 402.194C625.104 406.273 622.308 409.762 618.669 412.174L618.075 412.567C614.215 415.142 609.599 416.338 604.975 415.962C600.351 415.586 595.989 413.66 592.594 410.496L556.707 359.448L548.088 316.361C546.607 309.066 546.589 301.55 548.033 294.248C549.478 286.946 552.357 280.004 556.504 273.824C563.515 263.353 573.797 255.503 585.742 251.502C590.792 249.804 596.128 249.124 601.442 249.501C606.756 249.879 611.942 251.307 616.701 253.702L656.378 273.53C658.954 274.817 661.845 275.338 664.708 275.032C667.572 274.727 670.287 273.607 672.535 271.806C674.782 270.004 676.466 267.597 677.388 264.867C678.311 262.138 678.433 259.202 677.739 256.406L668.07 217.741C664.923 205.165 657.997 193.859 648.226 185.346L660.264 130.522C661.692 123.304 660.44 115.813 656.744 109.452C653.048 103.091 647.162 98.2958 640.187 95.965L619.991 89.1863L619.801 89.123C619.177 88.925 618.542 88.7765 617.919 88.6005V74.3198C617.919 72.3401 617.53 70.3797 616.773 68.5508C616.015 66.7219 614.905 65.0603 613.505 63.6611C612.106 62.2619 610.444 61.1526 608.615 60.3966C606.787 59.6406 604.827 59.2527 602.849 59.2553C600.87 59.2524 598.91 59.6399 597.081 60.3958C595.252 61.1516 593.59 62.2609 592.19 63.6601C590.79 65.0593 589.68 66.721 588.922 68.5502C588.165 70.3793 587.775 72.3399 587.776 74.3198V88.5923C587.147 88.7683 586.509 88.9168 585.893 89.1148L585.704 89.178L565.546 95.9485C558.562 98.2801 552.667 103.079 548.965 109.446C545.264 115.81 544.011 123.307 545.441 130.53L555.138 173.708C547.6 175.53 540.224 177.967 533.084 180.992L513.998 152.37L532.82 100.973C536.456 90.0379 535.781 78.1263 530.932 67.673C526.078 57.2171 517.419 49.0082 506.723 44.7215L467.23 28.931V14.0645C467.231 12.0846 466.841 10.124 466.084 8.29491C465.327 6.4658 464.216 4.80408 462.816 3.40485C461.416 2.00562 459.754 0.896353 457.925 0.140519C456.096 -0.615316 454.136 -1.00288 452.157 -0.999984C450.179 -1.00251 448.219 -0.614687 446.391 0.141309C444.562 0.897306 442.9 2.00663 441.501 3.40583C440.101 4.80502 438.991 6.46661 438.233 8.29555C437.476 10.1245 437.087 12.0849 437.088 14.0645V28.9365L397.562 44.727C386.864 49.017 378.207 57.2258 373.356 67.6813C368.505 78.1368 367.828 90.0415 371.462 100.978L390.286 152.376L371.201 180.998C364.06 177.972 356.685 175.537 349.147 173.716L358.846 130.522C360.278 123.305 359.028 115.814 355.331 109.454C351.634 103.089 345.746 98.2911 338.769 95.9568L318.573 89.178L318.383 89.1175C317.762 88.914 317.122 88.7683 316.5 88.5923V74.3198C316.501 72.3401 316.112 70.3797 315.355 68.5508C314.597 66.7219 313.487 65.0603 312.087 63.6611C310.688 62.2619 309.026 61.1526 307.197 60.3966C305.369 59.6406 303.409 59.2527 301.431 59.2553C299.452 59.2524 297.492 59.6399 295.663 60.3958C293.834 61.1516 292.172 62.2609 290.772 63.6601C289.372 65.0593 288.261 66.721 287.504 68.5502C286.747 70.3793 286.357 72.3399 286.358 74.3198V88.5923C285.728 88.7683 285.091 88.9168 284.475 89.1148L284.288 89.178L264.131 95.9485C257.146 98.2795 251.25 103.078 247.547 109.446C243.845 115.81 242.592 123.307 244.023 130.53L256.056 185.337C246.286 193.852 239.361 205.159 236.215 217.735L226.543 256.4C225.844 259.195 225.961 262.133 226.882 264.863C227.802 267.593 229.486 270.002 231.734 271.803C233.983 273.607 236.701 274.729 239.567 275.035C242.433 275.34 245.326 274.817 247.904 273.527L287.581 253.7C292.34 251.305 297.527 249.878 302.84 249.5C308.154 249.123 313.49 249.802 318.54 251.5C330.485 255.5 340.766 263.35 347.775 273.821C351.925 280 354.805 286.941 356.251 294.243C357.696 301.545 357.677 309.061 356.194 316.356L347.578 359.437L311.691 410.485C308.294 413.65 303.93 415.577 299.304 415.952C294.678 416.328 290.061 415.132 286.198 412.556L285.613 412.168C281.974 409.754 279.179 406.264 277.615 402.186C276.053 398.109 275.802 393.646 276.898 389.42C278.358 383.833 279.802 378.241 281.229 372.645C283.32 364.349 283.017 355.63 280.354 347.5C277.692 339.369 272.779 332.161 266.187 326.712L24.6526 127.912C22.7396 126.337 20.468 125.257 18.0389 124.769C15.6098 124.282 13.098 124.4 10.7256 125.115C8.35319 125.829 6.19329 127.118 4.43692 128.866C2.68054 130.614 1.38182 132.769 0.655598 135.139C-0.312275 138.311 -0.205993 141.714 0.957932 144.819L26.0488 211.707C40.1752 249.298 63.8138 282.575 94.651 308.282L101.566 314.043L32.0076 305.353C29.8666 305.084 27.693 305.278 25.6336 305.923C23.5743 306.567 21.6774 307.647 20.0713 309.089C18.4651 310.53 17.1873 312.3 16.3242 314.279C15.4611 316.258 15.0329 318.399 15.0687 320.558C15.118 323.444 15.9957 326.255 17.5973 328.656C38.9021 360.725 69.7979 385.231 105.865 398.668L116.543 402.67L43.543 410.777C40.4112 411.125 37.4673 412.446 35.1255 414.556C32.7836 416.665 31.1616 419.456 30.4877 422.536C29.814 425.616 30.1241 428.829 31.3743 431.723C32.6244 434.617 34.7514 437.045 37.4551 438.665L63.8762 454.518C95.5064 473.522 130.233 486.808 166.466 493.766C143.399 509.604 123.564 529.7 108.025 552.976C106.891 554.673 106.113 556.584 105.74 558.591C105.367 560.598 105.406 562.66 105.854 564.651C106.302 566.643 107.151 568.522 108.348 570.175C109.546 571.828 111.067 573.221 112.819 574.267C115.161 575.668 117.84 576.406 120.569 576.404H126.511C155.764 576.432 184.645 569.843 210.994 557.129V591.468C210.995 594.448 211.879 597.361 213.535 599.839C215.192 602.316 217.545 604.245 220.298 605.383C223.052 606.522 226.081 606.82 229.003 606.239C231.926 605.658 234.611 604.225 236.72 602.119L271.277 567.579L290.761 587.054C292.339 588.63 294.246 589.836 296.346 590.587C298.445 591.337 300.685 591.613 302.904 591.394C305.122 591.174 307.263 590.465 309.174 589.318C311.086 588.171 312.72 586.615 313.958 584.761L327.379 564.637C332.056 557.613 338.777 552.197 346.632 549.121V551.395C346.607 563.382 341.856 574.875 333.412 583.378L322.712 594.072C311.148 605.569 301.98 619.248 295.737 634.316C289.495 649.384 286.303 665.541 286.347 681.852C286.349 685.55 287.71 689.118 290.171 691.876C292.632 694.634 296.022 696.39 299.694 696.81L291.039 714.11L272.225 718.818L233.774 675.83C238.977 667.57 241.362 657.844 240.57 648.113C239.778 638.382 235.852 629.17 229.382 621.861C222.909 614.546 214.241 609.525 204.677 607.552C195.114 605.578 185.168 606.758 176.331 610.914C167.494 615.064 160.24 621.969 155.656 630.592C151.074 639.213 149.41 649.088 150.915 658.735C152.421 668.383 157.013 677.281 164.004 684.094C172.455 692.335 183.793 696.942 195.595 696.931C200.508 696.917 205.385 696.095 210.032 694.5L239.175 727.076L237.479 727.5C234.587 728.218 231.973 729.78 229.969 731.987C227.965 734.193 226.661 736.945 226.222 739.894C225.783 742.843 226.229 745.856 227.504 748.551C228.778 751.246 230.824 753.502 233.381 755.033C236.809 757.087 240.912 757.697 244.79 756.729L261.932 752.448L275.161 767.113C277.157 769.328 279.764 770.901 282.654 771.633C285.543 772.364 288.584 772.222 291.393 771.225C293.259 770.566 294.976 769.544 296.446 768.22C297.916 766.895 299.11 765.293 299.96 763.506C300.814 761.721 301.306 759.784 301.409 757.808C301.512 755.832 301.223 753.855 300.559 751.991C299.897 750.127 298.874 748.411 297.55 746.942L295.051 744.17L305.081 741.665C307.189 741.138 309.159 740.161 310.855 738.801C312.551 737.441 313.933 735.73 314.906 733.786L333.338 696.917H346.632C349.43 696.918 352.173 696.139 354.553 694.668C356.934 693.198 358.858 691.093 360.111 688.59C366.395 675.949 375.716 665.066 387.238 656.916L391.523 663.342L355.974 725.523C339.989 753.514 331.574 785.192 331.559 817.43C331.652 821.369 333.28 825.115 336.096 827.867C338.913 830.62 342.694 832.161 346.631 832.161C350.568 832.161 354.349 830.62 357.165 827.867C359.982 825.115 361.61 821.369 361.702 817.43C361.714 790.436 368.761 763.911 382.148 740.474L402.731 704.466L400.928 708.973C384.663 749.38 381.639 793.91 392.293 836.147C392.765 838.074 393.614 839.889 394.791 841.487C395.967 843.085 397.448 844.435 399.147 845.458C400.847 846.483 402.732 847.162 404.695 847.456C406.657 847.75 408.658 847.654 410.583 847.173C412.509 846.692 414.32 845.835 415.914 844.652C417.507 843.47 418.852 841.984 419.871 840.28C420.887 838.577 421.558 836.689 421.843 834.726C422.128 832.763 422.023 830.762 421.534 828.84C412.433 792.746 415.017 754.693 428.913 720.163L429.103 719.684L437.052 731.603V877.686C437.052 879.665 437.442 881.625 438.2 883.453C438.958 885.282 440.068 886.943 441.467 888.342C442.867 889.741 444.528 890.85 446.356 891.606C448.184 892.363 450.143 892.751 452.122 892.75C454.1 892.752 456.06 892.364 457.888 891.607C459.717 890.851 461.378 889.742 462.778 888.343C464.178 886.944 465.288 885.282 466.046 883.454C466.804 881.625 467.194 879.665 467.194 877.686V731.597L475.143 719.676L475.333 720.155C489.229 754.685 491.812 792.738 482.71 828.832C482.22 830.755 482.115 832.756 482.401 834.721C482.686 836.685 483.357 838.573 484.375 840.277C485.392 841.98 486.737 843.466 488.33 844.648C489.923 845.831 491.735 846.686 493.66 847.166C495.584 847.646 497.585 847.742 499.547 847.447C501.508 847.153 503.393 846.474 505.092 845.449C506.791 844.425 508.271 843.075 509.448 841.478C510.625 839.88 511.476 838.066 511.951 836.139C522.604 793.903 519.58 749.373 503.315 708.968L501.512 704.447L522.098 740.461C535.488 763.902 542.538 790.431 542.552 817.43C542.552 821.429 544.14 825.264 546.966 828.092C549.792 830.92 553.626 832.508 557.622 832.508C561.619 832.508 565.452 830.92 568.278 828.092C571.105 825.264 572.692 821.429 572.692 817.43C572.677 785.192 564.262 753.514 548.277 725.523L512.726 663.342L517.011 656.916C528.533 665.066 537.853 675.949 544.138 688.59C545.392 691.093 547.318 693.198 549.699 694.668C552.081 696.139 554.824 696.917 557.622 696.917H570.914L589.356 733.781C590.327 735.724 591.706 737.435 593.4 738.794C595.094 740.154 597.062 741.13 599.168 741.657L638.153 751.43C642.287 760.765 648.724 768.895 656.859 775.058C669.148 784.371 684.535 788.622 699.859 786.939C715.183 785.256 729.281 777.766 739.259 766.008C745.859 758.226 750.375 748.894 752.381 738.887C754.388 728.88 753.82 718.527 750.731 708.8C747.639 699.07 742.126 690.287 734.71 683.274C727.292 676.258 718.215 671.241 708.33 668.694V651.726C708.33 649.747 707.941 647.786 707.183 645.958C706.426 644.129 705.316 642.467 703.916 641.068C702.516 639.669 700.855 638.56 699.026 637.804C697.198 637.048 695.238 636.66 693.26 636.662C691.281 636.659 689.322 637.047 687.493 637.803C685.664 638.559 684.002 639.668 682.602 641.067C681.202 642.467 680.092 644.128 679.334 645.957C678.577 647.786 678.187 649.746 678.187 651.726V668.694C666.563 671.719 656.103 678.14 648.141 687.138C640.183 696.132 635.086 707.296 633.502 719.203L613.219 714.118L604.553 696.812C608.225 696.393 611.615 694.636 614.077 691.878C616.539 689.119 617.902 685.551 617.905 681.852C617.95 665.542 614.759 649.385 608.518 634.317C602.278 619.249 593.11 605.57 581.548 594.072L570.845 583.378C562.403 574.874 557.653 563.381 557.628 551.395V549.121C565.482 552.198 572.201 557.614 576.878 564.637L590.302 584.761C591.539 586.617 593.172 588.175 595.084 589.323C596.996 590.471 599.138 591.18 601.357 591.399C603.575 591.619 605.815 591.343 607.914 590.591C610.014 589.84 611.92 588.632 613.496 587.054L632.98 567.579L667.537 602.119C669.647 604.223 672.332 605.655 675.254 606.235C678.176 606.815 681.204 606.517 683.956 605.378C686.707 604.238 689.059 602.309 690.715 599.833C692.37 597.358 693.256 594.447 693.26 591.468V557.121C719.608 569.837 748.488 576.429 777.74 576.404H783.685C786.412 576.402 789.087 575.662 791.426 574.261C793.765 572.86 795.682 570.851 796.971 568.448C798.258 566.044 798.868 563.336 798.736 560.613C798.604 557.889 797.736 555.253 796.224 552.985C780.684 529.708 760.849 509.611 737.783 493.772C774.016 486.815 808.741 473.531 840.37 454.526L866.791 438.681C868.813 437.472 870.522 435.804 871.782 433.813C873.041 431.821 873.816 429.562 874.043 427.216C874.27 424.87 873.943 422.504 873.089 420.308C872.235 418.112 870.877 416.147 869.125 414.572C866.782 412.461 863.837 411.138 860.703 410.791L787.704 402.684L798.379 398.682C834.447 385.246 865.344 360.74 886.649 328.67C888.254 326.27 889.134 323.458 889.183 320.571C889.235 317.683 888.455 314.841 886.937 312.384C885.418 309.927 883.225 307.96 880.619 306.717C878.012 305.47 875.103 304.999 872.236 305.358L802.677 314.048L809.595 308.29C840.434 282.583 864.072 249.305 878.197 211.713ZM193.613 666.656C189.828 666.153 186.375 664.231 183.952 661.278C181.529 658.326 180.317 654.563 180.56 650.75C180.808 646.938 182.495 643.364 185.28 640.748C188.064 638.133 191.739 636.673 195.559 636.662C198.671 636.657 201.708 637.618 204.253 639.411C206.797 641.204 208.724 643.741 209.769 646.675C210.81 649.609 210.914 652.794 210.068 655.79C209.221 658.786 207.466 661.445 205.044 663.4C204.749 663.605 204.461 663.819 204.181 664.043C201.107 666.205 197.339 667.137 193.613 666.656ZM693.26 757.172C687.978 757.166 682.79 755.771 678.216 753.128C673.641 750.484 669.841 746.685 667.196 742.11H719.321C716.679 746.687 712.88 750.488 708.306 753.132C703.731 755.776 698.543 757.169 693.26 757.172ZM719.321 711.981H708.33V700.995C712.887 703.637 716.676 707.424 719.321 711.981ZM678.187 700.995V711.981H667.196C669.843 707.424 673.631 703.635 678.187 700.987V700.995ZM385.804 396.598C416.323 365.184 477.174 365.184 515.477 391.549C559.838 422.085 527.48 554.69 527.48 554.69C527.483 557.854 526.489 560.938 524.639 563.504C522.789 566.07 520.177 567.987 517.176 568.982L452.127 590.654L387.076 568.982C384.076 567.984 381.467 566.066 379.617 563.501C377.768 560.936 376.772 557.853 376.772 554.69C376.772 554.69 347.775 435.736 385.804 396.598ZM630.182 226.75C621.886 222.574 612.845 220.085 603.581 219.427C594.318 218.768 585.016 219.953 576.213 222.913C557.916 229.04 542.165 241.065 531.426 257.104C525.075 266.57 520.665 277.203 518.451 288.387C516.237 299.571 516.264 311.084 518.531 322.257V365.187L467.686 347.508L477.174 296.778C481.023 269.857 494.454 245.23 514.999 227.423C535.554 209.608 561.837 199.801 589.032 199.802H606.477C613.911 199.802 621.132 202.286 626.994 206.856C632.854 211.425 637.019 217.823 638.826 225.034L640.55 231.922L630.182 226.75ZM575.081 124.518L595.167 117.775C600.156 116.212 605.503 116.212 610.492 117.775L630.71 124.598L620.321 171.224C615.777 170.201 611.134 169.68 606.477 169.671H589.032C587.71 169.671 586.391 169.69 585.074 169.726L575.081 124.518ZM408.759 72.7L452.127 55.3613L495.496 72.7C499.06 74.1289 501.944 76.8645 503.561 80.3488C505.178 83.833 505.406 87.8032 504.197 91.4495L486.478 139.547H417.777L400.057 91.4605C398.841 87.813 399.065 83.8383 400.683 80.3505C402.301 76.8627 405.19 74.1257 408.759 72.7ZM414.976 169.665H489.27L506.624 195.686C480.595 214.057 461.419 240.576 452.122 271.06C442.824 240.577 423.65 214.057 397.622 195.683L414.976 169.665ZM293.751 117.775C298.74 116.21 304.088 116.21 309.077 117.775L329.295 124.595L319.205 169.723C317.883 169.687 316.553 169.668 315.222 169.668H297.778C293.127 169.677 288.491 170.197 283.953 171.219L273.663 124.518L293.751 117.775ZM328.039 222.913C319.235 219.954 309.933 218.769 300.669 219.427C291.405 220.086 282.364 222.575 274.067 226.75L263.705 231.931L265.428 225.042C267.234 217.83 271.398 211.43 277.258 206.859C283.121 202.285 290.343 199.802 297.778 199.802H315.222C342.421 199.802 368.708 209.612 389.256 227.423C409.799 245.23 423.229 269.857 427.077 296.778L432.17 347.508L381.681 365.187L385.724 322.274C387.989 311.1 388.015 299.587 385.801 288.404C383.586 277.22 379.176 266.587 372.825 257.121C362.089 241.075 346.338 229.045 328.039 222.913ZM302.296 547.919L299.072 552.754L281.927 535.619C279.1 532.793 275.267 531.206 271.271 531.206C267.275 531.206 263.443 532.793 260.616 535.619L241.132 555.094V531.213C241.133 528.485 240.394 525.808 238.991 523.468C237.589 521.128 235.578 519.214 233.172 517.93C230.766 516.643 228.057 516.032 225.332 516.164C222.607 516.296 219.968 517.165 217.698 518.678C198.383 531.572 176.552 540.215 153.65 544.036C168.754 528.21 186.477 515.115 206.039 505.33L217.72 499.495C220.567 498.075 222.892 495.789 224.36 492.965C225.828 490.141 226.364 486.924 225.891 483.776C225.417 480.628 223.959 477.712 221.726 475.445C219.493 473.178 216.599 471.677 213.46 471.159L179.324 465.474C148.735 460.404 119.182 450.362 91.8338 435.744L182.515 425.674C185.879 425.299 189.021 423.803 191.432 421.426C193.844 419.048 195.385 415.928 195.809 412.567C196.23 409.205 195.505 405.799 193.751 402.901C191.996 400.002 189.316 397.782 186.143 396.598L116.455 370.465C98.09 363.614 81.2144 353.292 66.7484 340.061L148.837 350.318C152.068 350.722 155.343 350.069 158.172 348.456C161.001 346.843 163.232 344.357 164.531 341.37C165.828 338.383 166.123 335.055 165.369 331.887C164.616 328.718 162.856 325.88 160.354 323.797L113.951 285.143C87.128 262.781 66.5673 233.835 54.2813 201.136L48.9547 186.941L247 349.963C249.186 351.768 250.817 354.156 251.702 356.85C252.587 359.544 252.691 362.434 252.002 365.185C250.655 370.434 249.163 376.237 247.711 381.784C245.029 392.079 245.625 402.955 249.418 412.894C253.215 422.837 260.017 431.347 268.878 437.237L269.46 437.625C279.333 444.206 291.198 447.119 302.994 445.86C314.79 444.6 325.773 439.247 334.036 430.731C334.588 430.164 335.091 429.554 335.545 428.908L346.629 413.136L340.808 438.065L335.847 456.443C325.621 464.091 313.28 468.387 300.518 468.741C287.756 469.095 275.196 465.49 264.562 458.42C261.235 456.206 257.166 455.403 253.247 456.185C251.307 456.571 249.462 457.337 247.818 458.438C246.173 459.539 244.763 460.953 243.666 462.601C242.567 464.246 241.804 466.092 241.419 468.033C241.034 469.974 241.036 471.972 241.424 473.912C241.812 475.852 242.579 477.697 243.681 479.34C244.782 480.984 246.197 482.394 247.843 483.489C262.418 493.181 279.452 498.515 296.948 498.866C314.445 499.217 331.679 494.57 346.629 485.469V517.779C328.496 521.668 312.593 532.48 302.302 547.917L302.296 547.919ZM560.222 615.371C574.225 629.287 583.451 647.29 586.572 666.788H566.511C555.187 648.045 538.758 632.92 519.149 623.187C515.864 621.545 512.093 621.159 508.544 622.101C504.994 623.043 501.91 625.249 499.871 628.304L452.127 699.887L404.383 628.296C402.344 625.24 399.261 623.034 395.711 622.092C392.162 621.149 388.39 621.536 385.105 623.178C365.495 632.914 349.064 648.042 337.741 666.788H317.68C320.804 647.295 330.029 629.296 344.027 615.382L354.726 604.688C358.758 600.641 362.312 596.143 365.316 591.284C369.048 593.99 373.172 596.11 377.544 597.568L447.361 620.83C450.455 621.861 453.799 621.861 456.893 620.83L526.707 597.568C531.08 596.11 535.204 593.991 538.935 591.284C541.94 596.144 545.495 600.641 549.528 604.688L560.222 615.371ZM790.301 285.143L743.895 323.797C741.394 325.881 739.634 328.719 738.879 331.888C738.129 335.055 738.423 338.38 739.718 341.367C741.016 344.355 743.247 346.841 746.076 348.455C748.905 350.068 752.18 350.722 755.412 350.318L837.503 340.061C823.038 353.293 806.162 363.615 787.797 370.465L718.109 396.587C714.938 397.775 712.259 399.997 710.504 402.895C708.749 405.792 708.022 409.197 708.442 412.558C708.861 415.919 710.402 419.041 712.816 421.417C715.228 423.795 718.371 425.292 721.737 425.665L812.418 435.736C785.067 450.353 755.511 460.396 724.92 465.466L690.784 471.153C687.646 471.674 684.754 473.176 682.522 475.443C680.29 477.71 678.832 480.626 678.358 483.773C677.886 486.919 678.422 490.134 679.889 492.957C681.356 495.78 683.678 498.065 686.524 499.486L698.202 505.324C717.763 515.109 735.487 528.203 750.591 544.028C727.687 540.207 705.856 531.564 686.54 518.67C684.842 517.541 682.932 516.768 680.927 516.398C678.922 516.028 676.862 516.068 674.873 516.517C672.884 516.966 671.006 517.814 669.354 519.009C667.701 520.204 666.308 521.722 665.258 523.472C663.857 525.811 663.117 528.486 663.117 531.213V555.1L643.633 535.624C642.234 534.223 640.572 533.113 638.743 532.356C636.914 531.599 634.954 531.211 632.975 531.213C630.996 531.211 629.036 531.6 627.208 532.356C625.379 533.113 623.718 534.224 622.319 535.624L605.177 552.759L601.95 547.928C591.662 532.486 575.758 521.67 557.622 517.782V485.456C572.574 494.553 589.808 499.198 607.303 498.847C624.799 498.497 641.833 493.165 656.408 483.476C658.888 481.824 660.821 479.473 661.965 476.72C663.108 473.968 663.409 470.938 662.831 468.015C662.252 465.091 660.82 462.405 658.715 460.296C656.609 458.187 653.926 456.751 651.005 456.168C647.086 455.385 643.016 456.19 639.689 458.407C629.054 465.472 616.496 469.075 603.735 468.721C590.974 468.367 578.635 464.074 568.407 456.429L562.963 437.235L557.622 413.147L568.71 428.918C569.163 429.565 569.666 430.175 570.216 430.742C578.479 439.261 589.464 444.615 601.262 445.873C613.06 447.131 624.925 444.213 634.797 437.628L635.388 437.235C644.249 431.339 651.046 422.83 654.839 412.891C658.632 402.953 659.228 392.08 656.546 381.786C655.092 376.24 653.597 370.437 652.255 365.187C651.563 362.437 651.665 359.546 652.55 356.851C653.435 354.157 655.066 351.769 657.255 349.966L855.3 186.941L849.976 201.136C837.688 233.835 817.126 262.782 790.301 285.143Z" fill="url(#paint0_linear_247_5)" fill-opacity="0.5"/>
<defs>
<linearGradient id="paint0_linear_247_5" x1="810.802" y1="444.5" x2="21.8305" y2="136.899" gradientUnits="userSpaceOnUse">
<stop stop-color="#DBF3FF"/>
<stop offset="1" stop-color="#D8E4FF"/>
</linearGradient>
</defs>
</svg>
